<svg width="0" height="0" class="hidden">
  <symbol version="1.1" id="icon-telegram" xmlns="http://www.w3.org/2000/svg" xmlns:xlink="http://www.w3.org/1999/xlink" x="0px" y="0px" xml:space="preserve" viewBox="0 0 455 455">
    <g>
      <path d="M0,0v455h455V0H0z M384.814,100.68l-53.458,257.136
		c-1.259,6.071-8.378,8.822-13.401,5.172l-72.975-52.981c-4.43-3.217-10.471-3.046-14.712,0.412l-40.46,32.981
		c-4.695,3.84-11.771,1.7-13.569-4.083l-28.094-90.351l-72.583-27.089c-7.373-2.762-7.436-13.171-0.084-16.003L373.36,90.959
		C379.675,88.517,386.19,94.049,384.814,100.68z"></path>
      <path d="M313.567,147.179l-141.854,87.367c-5.437,3.355-7.996,9.921-6.242,16.068
		l15.337,53.891c1.091,3.818,6.631,3.428,7.162-0.517l3.986-29.553c0.753-5.564,3.406-10.693,7.522-14.522l117.069-108.822
		C318.739,149.061,316.115,145.614,313.567,147.179z"></path>
    </g>
    <g></g>
    <g></g>
    <g></g>
    <g></g>
    <g></g>
    <g></g>
    <g></g>
    <g></g>
    <g></g>
    <g></g>
    <g></g>
    <g></g>
    <g></g>
    <g></g>
    <g></g>
  </symbol>
	<symbol xmlns="http://www.w3.org/2000/svg" viewBox="0 0 17 17" id="icon-facebook">
    <path d="M17 2.81865C17 1.32124 15.6788 0 14.1813 0H2.81865C1.32124 0 0 1.32124 0 2.81865V14.1813C0 15.6787 1.32124 17 2.81865 17H8.54404V10.5699H6.43005V7.7513H8.54404V6.60622C8.54404 4.66839 9.95337 2.99481 11.715 2.99481H14.0052V5.81346H11.715C11.4508 5.81346 11.1865 6.07772 11.1865 6.60622V7.7513H14.0052V10.5699H11.1865V17H14.1813C15.6788 17 17 15.6787 17 14.1813V2.81865Z"></path>
  </symbol>
	 <symbol xmlns="http://www.w3.org/2000/svg" viewBox="0 0 21 13" id="icon-vk">
    <path d="M20.8061 11.1153C20.8061 11.0323 20.7231 11.0323 20.7231 10.9493C20.391 10.2851 19.6438 9.45486 18.6475 8.54161C18.1494 8.1265 17.9003 7.7944 17.7343 7.62835C17.4852 7.29626 17.4852 7.0472 17.5683 6.71511C17.6513 6.46604 17.9834 6.05092 18.5645 5.30371C18.8966 4.8886 19.0626 4.63953 19.3117 4.39047C20.5571 2.73001 21.1382 1.6507 20.9722 1.15256L20.8892 1.06955C20.8061 0.986525 20.7231 0.903505 20.5571 0.903505C20.391 0.820482 20.142 0.820482 19.8929 0.903505H16.738C16.655 0.903505 16.655 0.903505 16.4889 0.903505C16.4059 0.903505 16.3229 0.903505 16.3229 0.903505H16.2399H16.1569L16.0738 0.98652C15.9908 1.06954 15.9908 1.06954 15.9908 1.15256C15.6587 2.06582 15.2436 2.81302 14.8285 3.64325C14.5794 4.05837 14.3303 4.47349 14.0813 4.80558C13.8322 5.13767 13.6662 5.38674 13.5001 5.55278C13.3341 5.71883 13.168 5.80185 13.085 5.9679C13.002 6.05092 12.8359 6.13395 12.8359 6.05092C12.7529 6.05092 12.6699 6.05092 12.6699 5.9679C12.5869 5.88487 12.5038 5.80185 12.4208 5.71882C12.3378 5.6358 12.3378 5.46976 12.2548 5.30371C12.2548 5.13766 12.2548 4.97162 12.2548 4.8886C12.2548 4.80557 12.2548 4.55651 12.2548 4.39047C12.2548 4.1414 12.2548 3.97535 12.2548 3.89232C12.2548 3.64325 12.2548 3.31117 12.2548 2.97908C12.2548 2.64699 12.2548 2.39791 12.2548 2.23186C12.2548 2.06582 12.2548 1.81675 12.2548 1.65071C12.2548 1.40164 12.2548 1.23559 12.2548 1.15256C12.2548 1.06954 12.1718 0.9035 12.1718 0.820477C12.0887 0.737454 12.0057 0.654428 11.9227 0.571406C11.8397 0.488383 11.6736 0.488385 11.5906 0.405362C11.1755 0.322339 10.6773 0.239319 10.0962 0.239319C8.76782 0.239319 7.85456 0.322344 7.52247 0.48839C7.35643 0.571413 7.19038 0.654431 7.10736 0.820477C6.94131 0.986523 6.94131 1.06955 7.02433 1.06955C7.43944 1.15257 7.77154 1.31861 7.93759 1.56768L8.02061 1.73373C8.10364 1.81676 8.10362 1.9828 8.18664 2.23186C8.26967 2.48093 8.26967 2.73 8.26967 3.06209C8.26967 3.56023 8.26967 4.05837 8.26967 4.39047C8.26967 4.80558 8.18664 5.05464 8.18664 5.30371C8.18664 5.55278 8.10364 5.71883 8.02061 5.80185C7.93759 5.9679 7.93758 6.05092 7.85456 6.05092C7.85456 6.05092 7.85455 6.13394 7.77153 6.13394C7.68851 6.13394 7.60549 6.21697 7.43944 6.21697C7.35642 6.21697 7.19038 6.13395 7.10736 6.05092C6.94131 5.9679 6.77526 5.80186 6.69224 5.63581C6.5262 5.46976 6.36015 5.22069 6.1941 4.8886C6.02805 4.5565 5.77897 4.22442 5.61293 3.72628L5.4469 3.39419C5.36387 3.22815 5.19783 2.89605 5.03178 2.48094C4.86574 2.06582 4.69969 1.73373 4.53364 1.31862C4.45062 1.15257 4.3676 1.06954 4.28458 0.98652H4.20155C4.20155 0.98652 4.11852 0.903505 4.0355 0.903505C3.95248 0.903505 3.86946 0.820477 3.78644 0.820477H0.797609C0.465517 0.820477 0.299474 0.903497 0.216451 0.98652L0.133423 1.06955C0.133423 1.06955 0.133423 1.15257 0.133423 1.23559C0.133423 1.31861 0.133428 1.40163 0.216451 1.56768C0.631565 2.56395 1.1297 3.56023 1.62784 4.55651C2.12598 5.46976 2.62412 6.29999 2.95621 6.88115C3.37132 7.46231 3.70341 8.04347 4.11853 8.54161C4.53364 9.03975 4.7827 9.37184 4.86573 9.53788C5.03177 9.70393 5.11479 9.78695 5.19781 9.86997L5.4469 10.119C5.61294 10.2851 5.86201 10.5342 6.1941 10.7832C6.52619 11.0323 6.9413 11.2814 7.35642 11.5304C7.77153 11.7795 8.26968 11.9456 8.76781 12.1116C9.34898 12.2776 9.84711 12.3607 10.3452 12.2776H11.5906C11.8397 12.2776 12.0057 12.1946 12.1718 12.0286L12.2548 11.9455C12.2548 11.8625 12.3378 11.8625 12.3378 11.7795C12.3378 11.6965 12.3378 11.6135 12.3378 11.4474C12.3378 11.1153 12.3378 10.8663 12.4208 10.6172C12.5038 10.3681 12.5039 10.2021 12.5869 10.036C12.6699 9.86998 12.7529 9.78695 12.8359 9.70393C12.919 9.6209 13.002 9.53788 13.002 9.53788H13.085C13.251 9.45486 13.5001 9.53788 13.6662 9.70393C13.9152 9.86997 14.1643 10.119 14.3303 10.3681C14.4964 10.6172 14.7455 10.8663 15.0776 11.1983C15.4097 11.5304 15.6587 11.7795 15.8248 11.8625L16.0738 12.0286C16.2399 12.1116 16.4059 12.1946 16.655 12.2776C16.9041 12.3607 17.0701 12.3607 17.2361 12.3607L20.0589 12.2776C20.308 12.2776 20.5571 12.1946 20.7231 12.1116C20.8892 12.0286 20.9722 11.9455 20.9722 11.7795C20.9722 11.6965 20.9722 11.5304 20.9722 11.4474C20.8061 11.2814 20.8061 11.1983 20.8061 11.1153Z"></path>
  </symbol>
	  <symbol xmlns="http://www.w3.org/2000/svg" viewBox="0 0 18 13" id="icon-youtube">
    <path d="M17.7131 4.91313C17.7131 4.52525 17.6485 4.07273 17.6485 3.55556C17.5839 3.03838 17.5192 2.52121 17.4545 2.06869C17.3253 1.55151 17.1313 1.16364 16.7434 0.840406C16.4202 0.517174 15.9677 0.323228 15.5152 0.258582C14.0283 0.0646425 11.8303 0 8.85657 0C5.88284 0 3.6202 0.0646425 2.19798 0.258582C1.74545 0.323228 1.29293 0.517174 0.969697 0.840406C0.646465 1.16364 0.387875 1.55151 0.258582 2.06869C0.129289 2.52121 0.0646504 2.97374 0.0646504 3.55556C3.94474e-06 4.07273 0 4.52525 0 4.91313C0 5.301 0 5.75353 0 6.4C0 7.04646 0 7.56363 0 7.88687C0 8.27475 0.0646504 8.72728 0.0646504 9.24445C0.129297 9.76162 0.193935 10.2788 0.258582 10.7313C0.387875 11.2485 0.581818 11.6364 0.969697 11.9596C1.29293 12.2828 1.74545 12.4768 2.19798 12.5414C3.68484 12.7354 5.88284 12.8 8.85657 12.8C11.8303 12.8 14.0929 12.7354 15.5152 12.5414C15.9677 12.4768 16.4202 12.2828 16.7434 11.9596C17.0667 11.6364 17.3253 11.2485 17.4545 10.7313C17.5838 10.2788 17.6485 9.82627 17.6485 9.24445C17.7131 8.72728 17.7131 8.27475 17.7131 7.88687C17.7131 7.49899 17.7131 7.04646 17.7131 6.4C17.7131 5.75353 17.7131 5.23636 17.7131 4.91313ZM12.2828 6.91717L7.17576 10.0848C7.11112 10.1495 6.98182 10.2141 6.85253 10.2141C6.72324 10.2141 6.65859 10.2141 6.5293 10.1495C6.33536 10.0202 6.20607 9.82627 6.20607 9.56768V3.16767C6.20607 2.90909 6.33536 2.71515 6.5293 2.58586C6.72324 2.45657 6.98182 2.45657 7.17576 2.58586L12.2828 5.75353C12.4768 5.88282 12.6061 6.07677 12.6061 6.27071C12.6061 6.46464 12.4768 6.78788 12.2828 6.91717Z"></path>
  </symbol>
	  <symbol xmlns="http://www.w3.org/2000/svg" viewBox="0 0 17 17" id="icon-instagram">
    <path d="M14.5808 0H2.41923C1.04615 0 0 1.04615 0 2.41923V14.5808C0 15.9538 1.04615 17 2.41923 17H14.5808C15.9538 17 17 15.9538 17 14.5808V2.41923C17 1.04615 15.9538 0 14.5808 0ZM8.5 13.6C11.3115 13.6 13.6 11.3769 13.6 8.69615C13.6 8.23846 13.5346 7.71538 13.4038 7.32308H14.8423V14.2538C14.8423 14.5808 14.5808 14.9077 14.1885 14.9077H2.81154C2.48462 14.9077 2.15769 14.6462 2.15769 14.2538V7.25769H3.66154C3.53077 7.71538 3.46539 8.17308 3.46539 8.63077C3.4 11.3769 5.68846 13.6 8.5 13.6ZM8.5 11.6385C6.66923 11.6385 5.23077 10.2 5.23077 8.43462C5.23077 6.66923 6.66923 5.23077 8.5 5.23077C10.3308 5.23077 11.7692 6.66923 11.7692 8.43462C11.7692 10.2654 10.3308 11.6385 8.5 11.6385ZM14.7769 4.64231C14.7769 5.03461 14.45 5.36154 14.0577 5.36154H12.2269C11.8346 5.36154 11.5077 5.03461 11.5077 4.64231V2.87692C11.5077 2.48462 11.8346 2.15769 12.2269 2.15769H14.0577C14.45 2.15769 14.7769 2.48462 14.7769 2.87692V4.64231Z"></path>
  </symbol>
	  <symbol version="1.1" id="icon-webcam" xmlns="http://www.w3.org/2000/svg" xmlns:xlink="http://www.w3.org/1999/xlink" x="0px" y="0px" xml:space="preserve" viewBox="0 0 32 32">
    <line x1="3" y1="19" x2="16" y2="19"></line>
    <line x1="8" y1="29" x2="17" y2="29"></line>
    <path d="M11.2,29c1.1-1.4,1.8-3.9,1.8-6H5c-1.1,0-2-0.9-2-2V6c0-1.1,0.9-2,2-2h20c1.1,0,2,0.9,2,2v6"></path>
    <circle cx="24" cy="20" r="5"></circle>
    <path d="M25,25h-2l-2.8,2.2c-0.7,0.6-0.3,1.8,0.6,1.8h6.3c0.9,0,1.4-1.2,0.6-1.8L25,25z"></path>
    <circle cx="24" cy="20" r="1"></circle>
  </symbol>
	<symbol version="1.1" xmlns="http://www.w3.org/2000/svg" xmlns:xlink="http://www.w3.org/1999/xlink" viewBox="0 0 28 28" id="icon-people">
    <title>ic_fluent_people_community_28_filled</title>
    <desc>Created with Sketch.</desc>
    <g id="ðŸ”-Product-Icons" stroke-width="1"  fill-rule="evenodd">
      <g id="ic_fluent_people_community_28_filled" fill="#212121" fill-rule="nonzero">
        <path d="M17.75,18 C18.7164983,18 19.5,18.7835017 19.5,19.75 L19.5,21.7519766 L19.4921156,21.8604403 C19.1813607,23.9866441 17.2715225,25.0090369 14.0667905,25.0090369 C10.8736123,25.0090369 8.93330141,23.9983408 8.51446278,21.8965776 L8.5,21.75 L8.5,19.75 C8.5,18.7835017 9.28350169,18 10.25,18 L17.75,18 Z M18.2439108,11.9999135 L24.25,12 C25.2164983,12 26,12.7835017 26,13.75 L26,15.7519766 L25.9921156,15.8604403 C25.6813607,17.9866441 23.7715225,19.0090369 20.5667905,19.0090369 L20.3985759,19.007437 C20.0900029,17.9045277 19.1110503,17.0815935 17.9288034,17.0057197 L17.75,17 L16.8277704,17.0007255 C17.8477843,16.1757619 18.5,14.9140475 18.5,13.5 C18.5,12.9740145 18.4097576,12.4691063 18.2439108,11.9999135 Z M3.75,12 L9.75608915,11.9999135 C9.59024243,12.4691063 9.5,12.9740145 9.5,13.5 C9.5,14.8308682 10.0777413,16.0267978 10.996103,16.8506678 L11.1722296,17.0007255 L10.25,17 C8.9877951,17 7.92420242,17.85036 7.60086562,19.0094363 L7.5667905,19.0090369 C4.37361228,19.0090369 2.43330141,17.9983408 2.01446278,15.8965776 L2,15.75 L2,13.75 C2,12.7835017 2.78350169,12 3.75,12 Z M14,10 C15.9329966,10 17.5,11.5670034 17.5,13.5 C17.5,15.4329966 15.9329966,17 14,17 C12.0670034,17 10.5,15.4329966 10.5,13.5 C10.5,11.5670034 12.0670034,10 14,10 Z M20.5,4 C22.4329966,4 24,5.56700338 24,7.5 C24,9.43299662 22.4329966,11 20.5,11 C18.5670034,11 17,9.43299662 17,7.5 C17,5.56700338 18.5670034,4 20.5,4 Z M7.5,4 C9.43299662,4 11,5.56700338 11,7.5 C11,9.43299662 9.43299662,11 7.5,11 C5.56700338,11 4,9.43299662 4,7.5 C4,5.56700338 5.56700338,4 7.5,4 Z" id="ðŸŽ¨-Color"></path>
      </g>
    </g>
  </symbol>
	<symbol id="icon-community" version="1.1" xml:space="preserve" xmlns="http://www.w3.org/2000/svg" xmlns:xlink="http://www.w3.org/1999/xlink" viewBox="0 0 128 128">
    <g>
      <path d="M64,42c-13.2,0-24,10.8-24,24s10.8,24,24,24s24-10.8,24-24S77.2,42,64,42z M64,82c-8.8,0-16-7.2-16-16s7.2-16,16-16   s16,7.2,16,16S72.8,82,64,82z"></path>
      <path d="M64,100.8c-14.9,0-29.2,6.2-39.4,17.1l-2.7,2.9l5.8,5.5l2.7-2.9c8.8-9.4,20.7-14.6,33.6-14.6s24.8,5.2,33.6,14.6l2.7,2.9   l5.8-5.5l-2.7-2.9C93.2,107.1,78.9,100.8,64,100.8z"></path>
      <path d="M97,47.9v8c9.4,0,18.1,3.8,24.6,10.7l5.8-5.5C119.6,52.7,108.5,47.9,97,47.9z"></path>
      <path d="M116.1,20c0-10.5-8.6-19.1-19.1-19.1S77.9,9.5,77.9,20S86.5,39.1,97,39.1S116.1,30.5,116.1,20z M85.9,20   c0-6.1,5-11.1,11.1-11.1s11.1,5,11.1,11.1s-5,11.1-11.1,11.1S85.9,26.1,85.9,20z"></path>
      <path d="M31,47.9c-11.5,0-22.6,4.8-30.4,13.2l5.8,5.5c6.4-6.9,15.2-10.7,24.6-10.7V47.9z"></path>
      <path d="M50.1,20C50.1,9.5,41.5,0.9,31,0.9S11.9,9.5,11.9,20S20.5,39.1,31,39.1S50.1,30.5,50.1,20z M31,31.1   c-6.1,0-11.1-5-11.1-11.1S24.9,8.9,31,8.9s11.1,5,11.1,11.1S37.1,31.1,31,31.1z"></path>
    </g>
  </symbol>
	<symbol version="1.1" id="icon-support" xmlns="http://www.w3.org/2000/svg" xmlns:xlink="http://www.w3.org/1999/xlink" x="0px" y="0px" xml:space="preserve" viewBox="0 0 472.615 472.615">
    <g>
      <g>
        <path d="M0,393.846v33.575l45.194,45.194h382.227l45.194-45.194v-33.575H0z M206.769,443.044h-19.692v-19.692h19.692V443.044z
			 M246.154,443.044h-19.692v-19.692h19.692V443.044z M285.538,443.044h-19.692v-19.692h19.692V443.044z"></path>
      </g>
    </g>
    <g>
      <g>
        <path d="M375.25,59.077c13.789,22.86,22.207,49.305,23.216,77.651c15.77,13.942,24.919,33.913,24.919,55.268
			c0,18.77-7.081,36.587-19.692,50.183v72.894h-98.548c-9.12,12.154-23.596,19.692-39.298,19.692h-29.538
			c-27.144,0-49.231-22.086-49.231-49.231c0-7.065,1.551-13.757,4.244-19.836l-33.782,0.144h-34.462
			c-40.721,0-73.846-33.124-73.846-73.846c0-21.355,9.149-41.326,24.918-55.268c1.01-28.346,9.428-54.791,23.217-77.651H19.692
			v315.077h433.231V59.077H375.25z"></path>
      </g>
    </g>
    <g>
      <g>
        <path d="M378.88,146.511v-3.938C378.88,63.902,314.88,0,236.308,0S93.736,63.902,93.736,142.572v3.938
			C78.868,156.16,68.923,172.898,68.923,192c0,29.833,24.32,54.154,54.154,54.154h14.769V137.846h-14.769
			c-3.249,0-6.498,0.294-9.551,0.886c1.969-66.068,56.32-119.04,122.782-119.04s120.812,52.972,122.782,119.04
			c-3.052-0.592-6.302-0.886-9.551-0.886h-14.769v108.308h14.769c5.12,0,10.043-0.688,14.769-2.069v31.607h-70.695
			C289.575,264.172,278.646,256,265.846,256h-29.538c-16.246,0-29.538,13.194-29.538,29.538c0,16.246,13.292,29.538,29.538,29.538
			h29.538c12.8,0,23.729-8.271,27.766-19.692H384v-61.637c12.012-9.945,19.692-25.009,19.692-41.748
			C403.692,172.898,393.748,156.16,378.88,146.511z"></path>
      </g>
    </g>
    <g>
      <g>
        <polygon points="167.385,98.432 167.385,196.894 196.941,196.894 196.94,226.432 250.016,196.894 305.248,196.894 305.248,98.432 
					"></polygon>
      </g>
    </g>
    <g></g>
    <g></g>
    <g></g>
    <g></g>
    <g></g>
    <g></g>
    <g></g>
    <g></g>
    <g></g>
    <g></g>
    <g></g>
    <g></g>
    <g></g>
    <g></g>
    <g></g>
  </symbol>
</svg>